<svg xmlns="http://www.w3.org/2000/svg" viewBox="0 0 568.43 226.74"><defs><style>.cls-1{font-size:29.71px;font-family:AmazonEmber-Light, Amazon Ember;font-weight:300;}.cls-1,.cls-8{fill:#010101;}.cls-2{letter-spacing:0.02em;}.cls-3{letter-spacing:-0.06em;}.cls-4{letter-spacing:0em;}.cls-5{letter-spacing:-0.01em;}.cls-6{letter-spacing:0em;}.cls-7{letter-spacing:-0.01em;}.cls-9{fill:#f8991d;}.cls-10{fill:#f5f7f7;}.cls-11{fill:#2e2929;}</style></defs><g id="Layer_2" data-name="Layer 2"><g id="Layer_1-2" data-name="Layer 1"><text class="cls-1" transform="translate(202.19 168.66) scale(0.81 1)">Suppo<tspan class="cls-2" x="83.9" y="0">r</tspan><tspan x="94.71" y="0">t • </tspan><tspan class="cls-3" x="130.96" y="0">T</tspan><tspan class="cls-4" x="145.66" y="0">raining • A</tspan><tspan class="cls-5" x="278.7" y="0">r</tspan><tspan class="cls-6" x="288.62" y="0">chi</tspan><tspan class="cls-7" x="325.46" y="0">t</tspan><tspan x="335.92" y="0">ectu</tspan><tspan class="cls-5" x="391.92" y="0">r</tspan><tspan x="401.84" y="0">e</tspan><tspan x="61.79" y="30.95">Resea</tspan><tspan class="cls-5" x="137.73" y="30.95">r</tspan><tspan x="147.65" y="30.95">ch </tspan><tspan class="cls-3" x="185.71" y="30.95">T</tspan><tspan x="200.42" y="30.95">echnologies</tspan></text><g id="Logo"><polygon class="cls-8" points="171.22 110.4 183.83 110.4 116.66 226.74 110.34 215.79 171.22 110.4"/><polygon class="cls-9" points="145.96 110.4 158.52 110.4 103.99 204.79 97.72 193.94 145.96 110.4"/><polygon class="cls-8" points="120.27 110.4 132.86 110.4 91.17 182.59 84.88 171.69 120.27 110.4"/><polygon class="cls-8" points="42.26 75.8 29.66 75.8 0 24.42 64.43 24.42 94.1 75.8 81.5 75.8 58.13 35.33 18.89 35.33 42.26 75.8"/><polygon class="cls-8" points="75.65 65.92 88.24 65.92 97.88 82.62 91.59 93.52 75.65 65.92"/><polygon class="cls-8" points="247.57 0 241.28 10.9 164.7 10.9 78.37 160.42 23.81 65.92 36.4 65.92 78.37 138.61 158.4 0 247.57 0"/><polygon class="cls-10" points="68.73 75.8 56.14 75.8 39.07 46.23 51.66 46.23 68.73 75.8"/><polygon class="cls-10" points="85.29 104.74 79 115.65 50.28 65.92 62.88 65.92 85.29 104.74"/></g><path class="cls-10" d="M314,21.81l-12,20.24h-21.4V99.61H262.11V42.05H234l12-20.24Z"/><path class="cls-10" d="M326.13,99.61l11.19-20h15.05c3.58,0,7.79,0,10.65.23-1.61-2.79-4.12-7.56-6.09-11.28L346.19,48,318.07,99.61H296.14l38.41-70.35c2.51-4.54,6.18-8.73,12-8.73,5.55,0,9.22,3.84,11.82,8.73l37.42,70.35Z"/><path class="cls-10" d="M487.39,99.61h-24.8L449.25,79H420.78V99.61H402.24V59.84h52.11c5.73,0,10.21-3.37,10.21-8.72,0-6-3.85-9.07-10.21-9.07H402.24l12.09-20.24h38.5c13.61,0,30.8,5.59,30.8,27.8,0,12.09-5.82,22.09-15.67,24.65,2.06,2,4.3,4.77,8.42,10.23Z"/><path class="cls-10" d="M568.43,21.81l-12,20.24H535V99.61H516.49V42.05H488.38l12-20.24Z"/><path class="cls-10" d="M236.77,74.14c0,15.93-7.43,25.47-25.7,25.47H126.2l11.91-20h74.4c4.38,0,6.35-1.63,6.35-5.7s-2-5.58-6.35-5.58h-32.6c-15.4,0-22.47-9-22.47-22.33,0-14.65,7.52-24.19,25.7-24.19h52L223.25,42.05H181.7c-4.29,0-6.35,1.39-6.35,5.35s2.06,5.46,6.35,5.46h32.6C228.89,52.86,236.77,60,236.77,74.14Z"/><path class="cls-11" d="M202.16,125.54c-4.36,0-7-3.23-7-7.29a7.41,7.41,0,0,1,7.53-7.72c4.34,0,7,3.21,7,7.29S206.71,125.54,202.16,125.54Zm0-12.83c-2.16,0-3.84,1.75-3.84,4.87,0,3.46,1.64,5.74,4.38,5.74,2.2,0,3.84-1.85,3.84-4.92S204.94,112.71,202.11,112.71Z"/><path class="cls-11" d="M224.41,125.22h-9.82c.13,0,1-.24,1-2.68v-9.25c0-2.11-.9-2.39-1.09-2.44h5.21c-.15,0-1.12.24-1.12,2.44v9.94h2.92c2,0,2.63-.19,3.49-1.74Z"/><path class="cls-11" d="M236,125.22h-6.28c.18,0,1.19-.24,1.19-2.68v-9.27c0-2.11-1.12-2.37-1.34-2.42h6.67c4.53,0,7.42,2.87,7.42,7C243.66,121.66,241.37,125.22,236,125.22Zm-.5-12.4H234v10.41h2.11c2.91,0,4.25-2.54,4.25-5.17C240.38,115,238.83,112.82,235.5,112.82Z"/><path class="cls-11" d="M262.92,125.22h-6.28c.17,0,1.19-.24,1.19-2.68v-9.27c0-2.11-1.12-2.37-1.34-2.42h6.66c4.53,0,7.42,2.87,7.42,7C270.57,121.66,268.29,125.22,262.92,125.22Zm-.5-12.4h-1.49v10.41h2.12c2.91,0,4.25-2.54,4.25-5.17C267.3,115,265.74,112.82,262.42,112.82Z"/><path class="cls-11" d="M282.69,125.54c-4.36,0-7-3.23-7-7.29a7.41,7.41,0,0,1,7.52-7.72c4.34,0,7,3.21,7,7.29S287.24,125.54,282.69,125.54Zm0-12.83c-2.16,0-3.84,1.75-3.84,4.87,0,3.46,1.64,5.74,4.37,5.74,2.21,0,3.84-1.85,3.84-4.92S285.47,112.71,282.65,112.71Z"/><path class="cls-11" d="M312.58,125.22h-5.14c.15,0,1-.22,1-2.44v-8.2l-4.85,11-5-11v8c0,2.25,1.12,2.55,1.36,2.57h-4.92c.18,0,1.32-.26,1.32-2.57v-9.49c0-2-1.17-2.26-1.38-2.31h5.24l3.82,8.7,3.77-8.7h4.73c-.15,0-1.17.24-1.17,2.38v9.55C311.41,124.92,312.38,125.2,312.58,125.22Z"/><path class="cls-11" d="M322.67,125.22h-5.29c.15,0,1.12-.22,1.12-2.22v-9.82c0-2-1-2.28-1.12-2.33h5.31c-.11,0-1.12.24-1.12,2.33V123C321.57,124.94,322.49,125.2,322.67,125.22Z"/><path class="cls-11" d="M337,110.85h4.69c-.16,0-1.13.24-1.13,2.38v12h-2.24a13.32,13.32,0,0,0-2.31-3.8l-4.81-5.86v7.31c0,2.07,1.08,2.33,1.3,2.35h-4.79c.15,0,1.1-.22,1.1-2.35V113.4c0-1.66-1.82-2.48-2-2.55h4.57l6.77,8.48v-6.1C338.16,111.16,337.17,110.9,337,110.85Z"/><path class="cls-11" d="M351.7,125.22h-5.29c.15,0,1.12-.22,1.12-2.22v-9.82c0-2-1-2.28-1.12-2.33h5.31c-.11,0-1.12.24-1.12,2.33V123C350.6,124.94,351.53,125.2,351.7,125.22Z"/><path class="cls-11" d="M363.68,125.54c-4.36,0-7-3.23-7-7.29a7.41,7.41,0,0,1,7.53-7.72c4.34,0,7,3.21,7,7.29S368.23,125.54,363.68,125.54Zm-.05-12.83c-2.15,0-3.84,1.75-3.84,4.87,0,3.46,1.64,5.74,4.38,5.74,2.2,0,3.84-1.85,3.84-4.92S366.46,112.71,363.63,112.71Z"/><path class="cls-11" d="M385.56,110.85h4.68c-.15,0-1.12.24-1.12,2.38v12h-2.24a13.32,13.32,0,0,0-2.31-3.8l-4.81-5.86v7.31c0,2.07,1.08,2.33,1.29,2.35h-4.78c.14,0,1.1-.22,1.1-2.35V113.4c0-1.66-1.82-2.48-2-2.55H380l6.77,8.48v-6.1C386.75,111.16,385.76,110.9,385.56,110.85Z"/><path class="cls-11" d="M411.62,110.85h5.06c-.15,0-1.2.24-1.2,2.44v6.77c0,3.91-2.14,5.48-5.63,5.48-4.12,0-5.91-1.77-5.91-5.26v-7c0-2.14-.93-2.37-1.13-2.42h5.33c-.15,0-1.1.22-1.1,2.35v7c0,2.42,1,3.28,3,3.28s2.85-1.1,2.85-3.28v-6.86C412.87,111.16,411.83,110.9,411.62,110.85Z"/><path class="cls-11" d="M430.8,110.85h4.69c-.15,0-1.13.24-1.13,2.38v12h-2.24a13.32,13.32,0,0,0-2.31-3.8L425,115.56v7.31c0,2.07,1.08,2.33,1.3,2.35h-4.79c.15,0,1.1-.22,1.1-2.35V113.4c0-1.66-1.81-2.48-2-2.55h4.58l6.77,8.48v-6.1C432,111.16,431,110.9,430.8,110.85Z"/><path class="cls-11" d="M445.53,125.22h-5.29c.15,0,1.12-.22,1.12-2.22v-9.82c0-2-1-2.28-1.12-2.33h5.31c-.11,0-1.12.24-1.12,2.33V123C444.43,124.94,445.36,125.2,445.53,125.22Z"/><path class="cls-11" d="M460.31,110.85h5c-.13,0-1.07.24-2.05,2.72l-4.57,11.65h-2.2l-4.68-11.74c-.93-2.3-1.88-2.58-2.05-2.63h5.8a1,1,0,0,0-.88,1A3.44,3.44,0,0,0,455,113l3,7.62,2.91-7.71a3.73,3.73,0,0,0,.26-1A1,1,0,0,0,460.31,110.85Z"/><path class="cls-11" d="M479.5,125.22h-9.86c.15,0,1.17-.26,1.17-2.57v-9.38c0-2.09-1.12-2.37-1.34-2.42h9.77v3.84a2.36,2.36,0,0,0-2.63-1.87h-2.72V117h2.37c1.45,0,1.69-.6,1.73-.73v3.4c0-.06-.17-.71-1.68-.71h-2.42v4.29h2.94a3.19,3.19,0,0,0,3.36-2Z"/><path class="cls-11" d="M497.46,125.22h-4.38l-2.4-4.42c-.51-1-.86-1.23-1.42-1.23H489v3.25c0,2.12.93,2.38,1.1,2.4h-5.2c.15,0,1.14-.22,1.14-2.4v-9.47c0-2.17-1.14-2.45-1.31-2.5H491c3.38,0,5.09,2.07,5.09,4.21a3.89,3.89,0,0,1-3.52,4,3.34,3.34,0,0,1,1.08,1.25l1.92,3.32C496.4,125,497.24,125.2,497.46,125.22Zm-7-12.4h-1.48v4.81h1.51a2.41,2.41,0,1,0,0-4.81Z"/><path class="cls-11" d="M506.36,125.54a8.43,8.43,0,0,1-4.25-1.08v-4.07a4.52,4.52,0,0,0,4.33,3c1.32,0,2.42-.61,2.42-1.64,0-1.53-2-2.16-3.78-3.11-1.49-.77-2.91-1.81-2.91-3.82,0-2.82,2.31-4.29,5.15-4.29a6.63,6.63,0,0,1,3.54,1V115a4.52,4.52,0,0,0-3.73-2.31c-1.44,0-2.13.69-2.13,1.58,0,1.16,1.29,1.74,2.78,2.44,1.92.86,4,1.94,4,4.57C511.81,124,509.46,125.54,506.36,125.54Z"/><path class="cls-11" d="M522.11,125.22h-5.28c.15,0,1.12-.22,1.12-2.22v-9.82c0-2-1-2.28-1.12-2.33h5.3c-.1,0-1.12.24-1.12,2.33V123C521,124.94,521.94,125.2,522.11,125.22Z"/><path class="cls-11" d="M539.65,114.76a2.49,2.49,0,0,0-2.67-1.94h-2.22v10c0,2.12.88,2.4,1.1,2.42h-5.35c.19,0,1.1-.24,1.1-2.42v-10H529c-1.47,0-1.83,1-2.29,1.94.13-1.3.24-2.59.35-3.91h12.27Z"/><path class="cls-11" d="M553.28,110.85H558c-.07,0-.87.24-2.2,2.53l-3.45,5.8v3.62c0,2.14.9,2.4,1.07,2.42h-5.32c.15,0,1.12-.22,1.12-2.42v-3.51l-3.39-6c-1.25-2.17-2.11-2.43-2.26-2.48h5.8a.77.77,0,0,0-.67.84,3.34,3.34,0,0,0,.56,1.54l2,3.56,1.84-3.17a4.63,4.63,0,0,0,.77-2A.76.76,0,0,0,553.28,110.85Z"/></g></g></svg>