<svg xmlns="http://www.w3.org/2000/svg" xmlns:xlink="http://www.w3.org/1999/xlink" viewBox="0 0 395.77 160.55"><defs><style>.cls-1,.cls-2,.cls-3{fill:none;}.cls-1,.cls-2{clip-rule:evenodd;}.cls-2{clip-path:url(#clip-path);}.cls-4{clip-path:url(#clip-path-2);}.cls-5{clip-path:url(#clip-path-3);}.cls-6{fill:#0d0e0e;}.cls-7{fill:#a4a5a6;}.cls-8{fill:#282828;}.cls-9{fill:#a9a8a8;}.cls-10{fill:#232424;}</style><clipPath id="clip-path"><polygon class="cls-1" points="243.98 136.75 395.77 136.75 395.77 39.06 243.98 39.06 243.98 136.75 243.98 136.75"/></clipPath><clipPath id="clip-path-2"><polygon class="cls-2" points="243.98 39.06 395.77 39.06 395.77 136.75 243.98 136.75 243.98 39.06 243.98 39.06"/></clipPath><clipPath id="clip-path-3"><polygon class="cls-3" points="243.98 136.75 395.77 136.75 395.77 39.06 243.98 39.06 243.98 136.75 243.98 136.75"/></clipPath></defs><g id="Layer_2" data-name="Layer 2"><g id="Layer_1-2" data-name="Layer 1"><g class="cls-4"><g class="cls-5"><path class="cls-6" d="M287.11,74.88a17.73,17.73,0,0,0,.56,4.81,29.24,29.24,0,0,0,1.61,3.89,2.54,2.54,0,0,1,.35,1.24,2.19,2.19,0,0,1-1,1.62l-3.17,2.27a1.92,1.92,0,0,1-2.81-.27,15.8,15.8,0,0,1-1.81-2.54c-.51-.92-1-1.94-1.56-3.19q-5.9,7.46-14.8,7.46c-4.22,0-7.59-1.3-10.06-3.89s-3.72-6-3.72-10.38a14.34,14.34,0,0,1,4.58-11.12c3.07-2.81,7.14-4.22,12.32-4.22A38.19,38.19,0,0,1,273,61c1.86.27,3.77.71,5.78,1.19V58.24c0-4.11-.8-7-2.36-8.65s-4.33-2.48-8.2-2.48a21.31,21.31,0,0,0-5.44.7,37.72,37.72,0,0,0-5.43,1.84,14,14,0,0,1-1.76.7,2.77,2.77,0,0,1-.81.16c-.7,0-1-.54-1-1.67V46.19a3.61,3.61,0,0,1,.35-1.89,3.89,3.89,0,0,1,1.41-1.14,28,28,0,0,1,6.34-2.43,28.54,28.54,0,0,1,7.85-1c6,0,10.36,1.46,13.18,4.37S287,51.43,287,57.37V74.88Zm-20.42,8.21a15.38,15.38,0,0,0,5.18-1,11.26,11.26,0,0,0,4.78-3.46,8.78,8.78,0,0,0,1.71-3.46,20,20,0,0,0,.5-4.7V68.23a40.33,40.33,0,0,0-4.63-.92,35.42,35.42,0,0,0-4.72-.32c-3.38,0-5.84.7-7.5,2.16a7.79,7.79,0,0,0-2.47,6.21c0,2.54.61,4.43,1.87,5.73a6.93,6.93,0,0,0,5.28,2Zm40.4,5.84a2.69,2.69,0,0,1-1.91-.54,4.5,4.5,0,0,1-1.06-2.11L292.3,44.51a10.38,10.38,0,0,1-.46-2.16,1.18,1.18,0,0,1,.93-1.34.88.88,0,0,1,.28,0H298a2.67,2.67,0,0,1,2,.54,5.34,5.34,0,0,1,1,2.11l8.45,35.77,7.85-35.77a3.86,3.86,0,0,1,1-2.11,3.34,3.34,0,0,1,2-.54h4a2.94,2.94,0,0,1,2,.54,3.76,3.76,0,0,1,.95,2.11l8,36.2,8.71-36.2a4.8,4.8,0,0,1,1-2.11,3.21,3.21,0,0,1,2-.54h4.68a1.13,1.13,0,0,1,1.26,1,1.71,1.71,0,0,1,0,.32,5.16,5.16,0,0,1-.1.87,8.92,8.92,0,0,1-.35,1.35L340.19,86.33a4.23,4.23,0,0,1-1.05,2.11,3.07,3.07,0,0,1-1.92.54H332.9a2.85,2.85,0,0,1-2-.54,3.88,3.88,0,0,1-1-2.16l-7.8-34.85-7.75,34.79a4.36,4.36,0,0,1-.95,2.17,3,3,0,0,1-2,.54Zm64.65,1.45a30.77,30.77,0,0,1-7.75-1,22,22,0,0,1-5.79-2.16,3.78,3.78,0,0,1-1.56-1.51,4.32,4.32,0,0,1-.3-1.51V81.47c0-1.13.4-1.68,1.16-1.68a2.87,2.87,0,0,1,.91.17c.3.11.75.32,1.25.54a26.26,26.26,0,0,0,5.54,1.89,28,28,0,0,0,6,.65c3.17,0,5.64-.6,7.35-1.79a5.93,5.93,0,0,0,2.62-5.13,5.53,5.53,0,0,0-1.36-3.78,12.34,12.34,0,0,0-5.08-2.81l-7.3-2.43c-3.67-1.24-6.39-3.08-8.05-5.51a13.48,13.48,0,0,1-2.51-7.84,12.59,12.59,0,0,1,1.35-6,13.63,13.63,0,0,1,3.63-4.43,15.35,15.35,0,0,1,5.23-2.81,20.37,20.37,0,0,1,6.34-.92,23.83,23.83,0,0,1,3.37.21c1.16.17,2.21.38,3.27.6a20.17,20.17,0,0,1,2.87.86,10.62,10.62,0,0,1,2.11,1,4.43,4.43,0,0,1,1.51,1.35,3.06,3.06,0,0,1,.45,1.78v2.54c0,1.13-.4,1.73-1.16,1.73a4.87,4.87,0,0,1-1.91-.65,21.76,21.76,0,0,0-9.66-2.11,12.32,12.32,0,0,0-6.69,1.51,5.88,5.88,0,0,0-.85,8.65,14.56,14.56,0,0,0,5.53,3l7.14,2.43c3.63,1.24,6.24,3,7.8,5.19a12.83,12.83,0,0,1,2.32,7.56,14.79,14.79,0,0,1-1.31,6.27,14.34,14.34,0,0,1-3.67,4.75,15.79,15.79,0,0,1-5.59,3,22.29,22.29,0,0,1-7.19,1.13Z"/><path class="cls-7" d="M381.25,116.64c-16.56,13.13-40.6,20.1-61.28,20.1a106.69,106.69,0,0,1-74.81-30.63c-1.56-1.52-.16-3.57,1.71-2.38a143,143,0,0,0,74.86,21.34,140.61,140.61,0,0,0,57.1-12.53c2.77-1.35,5.13,1.94,2.42,4.1Zm6.89-8.43c-2.11-2.91-14-1.4-19.37-.7-1.61.22-1.86-1.3-.4-2.43,9.46-7.13,25-5.08,26.81-2.7s-.5,19.12-9.36,27.12c-1.35,1.24-2.66.59-2.06-1,2-5.34,6.49-17.39,4.38-20.26Z"/></g></g><g id="Logo"><polygon class="cls-8" points="78.13 152.8 82.61 160.55 166.38 15.44 157.47 15.44 78.13 152.8"/><polygon class="cls-9" points="148.48 15.44 139.56 15.44 69.2 137.32 73.63 145.01 148.48 15.44"/><polygon class="cls-8" points="130.29 15.44 121.37 15.44 60.1 121.57 64.56 129.29 130.29 15.44"/><polygon class="cls-6" points="175.3 0 170.84 7.72 116.62 7.72 55.49 113.59 16.86 46.67 16.96 46.67 0 17.29 45.62 17.29 66.63 53.67 66.52 53.67 69.31 58.5 64.85 66.22 53.57 46.67 53.67 46.67 41.16 25.01 13.37 25.01 29.92 53.67 29.82 53.67 55.49 98.15 112.16 0 175.3 0"/><polygon class="cls-9" points="60.39 74.16 55.94 81.89 35.61 46.67 35.71 46.67 27.66 32.73 36.58 32.73 48.67 53.67 48.56 53.67 60.39 74.16"/></g><rect class="cls-10" x="185.36" y="61.62" width="12.57" height="59.05" transform="translate(-8.31 162.21) rotate(-45)"/><rect class="cls-7" x="185.36" y="61.62" width="12.57" height="59.05" transform="translate(262.72 291.1) rotate(-135)"/></g></g></svg>