<svg xmlns="http://www.w3.org/2000/svg" xmlns:xlink="http://www.w3.org/1999/xlink" viewBox="0 0 420.27 170.49"><defs><style>.cls-1,.cls-2,.cls-3{fill:none;}.cls-1,.cls-2{clip-rule:evenodd;}.cls-2{clip-path:url(#clip-path);}.cls-4{clip-path:url(#clip-path-2);}.cls-5{clip-path:url(#clip-path-3);}.cls-6{fill:#fff;}.cls-7{fill:#f8991d;}.cls-8{fill:#010101;}</style><clipPath id="clip-path"><polygon class="cls-1" points="259.08 145.22 420.27 145.22 420.27 41.48 259.08 41.48 259.08 145.22 259.08 145.22"/></clipPath><clipPath id="clip-path-2"><polygon class="cls-2" points="259.08 41.48 420.27 41.48 420.27 145.22 259.08 145.22 259.08 41.48 259.08 41.48"/></clipPath><clipPath id="clip-path-3"><polygon class="cls-3" points="259.08 145.22 420.27 145.22 420.27 41.48 259.08 41.48 259.08 145.22 259.08 145.22"/></clipPath></defs><g id="Layer_2" data-name="Layer 2"><g id="Layer_1-2" data-name="Layer 1"><g class="cls-4"><g class="cls-5"><path class="cls-6" d="M304.89,79.51a18.66,18.66,0,0,0,.59,5.11,30.42,30.42,0,0,0,1.71,4.13,2.62,2.62,0,0,1,.37,1.32,2.31,2.31,0,0,1-1,1.72l-3.37,2.41a2.48,2.48,0,0,1-1.39.52,2.37,2.37,0,0,1-1.6-.81,17.06,17.06,0,0,1-1.92-2.69c-.54-1-1.07-2.07-1.66-3.39q-6.25,7.92-15.71,7.92c-4.49,0-8.06-1.38-10.68-4.13s-4-6.43-4-11a15.29,15.29,0,0,1,4.87-11.82c3.25-3,7.58-4.47,13.08-4.47a39.89,39.89,0,0,1,5.67.46c2,.29,4,.74,6.14,1.26V61.84c0-4.36-.85-7.4-2.51-9.18S288.92,50,284.8,50a22.56,22.56,0,0,0-5.77.75,40,40,0,0,0-5.77,1.95,15.86,15.86,0,0,1-1.87.75,3.47,3.47,0,0,1-.85.17c-.75,0-1.12-.58-1.12-1.78V49.05a3.85,3.85,0,0,1,.37-2,4,4,0,0,1,1.5-1.2A29.45,29.45,0,0,1,278,43.25a30.49,30.49,0,0,1,8.33-1.09c6.36,0,11,1.55,14,4.65s4.43,7.8,4.43,14.11V79.51ZM283.2,88.23a16.24,16.24,0,0,0,5.5-1,11.94,11.94,0,0,0,5.08-3.67,9.29,9.29,0,0,0,1.81-3.67,22,22,0,0,0,.54-5V72.46a41.17,41.17,0,0,0-4.92-1,36.6,36.6,0,0,0-5-.34c-3.58,0-6.2.74-8,2.29a8.29,8.29,0,0,0-2.62,6.6c0,2.7.64,4.7,2,6.08a7.39,7.39,0,0,0,5.61,2.12Zm42.9,6.2a2.82,2.82,0,0,1-2-.57A4.76,4.76,0,0,1,323,91.62L310.39,47.27a11.06,11.06,0,0,1-.48-2.3,1.25,1.25,0,0,1,1-1.42,1,1,0,0,1,.29,0h5.24a2.8,2.8,0,0,1,2.08.57,5.8,5.8,0,0,1,1.07,2.24l9,38,8.33-38a4.16,4.16,0,0,1,1-2.24,3.45,3.45,0,0,1,2.13-.57h4.28a3.08,3.08,0,0,1,2.14.57,4.08,4.08,0,0,1,1,2.24l8.44,38.44,9.24-38.44a5.13,5.13,0,0,1,1.07-2.24,3.32,3.32,0,0,1,2.09-.57h5a1.21,1.21,0,0,1,1.33,1.09,1,1,0,0,1,0,.34,5.64,5.64,0,0,1-.11.92,8,8,0,0,1-.37,1.44L361.25,91.68a4.45,4.45,0,0,1-1.12,2.23,3.22,3.22,0,0,1-2,.58h-4.59a3,3,0,0,1-2.14-.58,4.13,4.13,0,0,1-1-2.29l-8.29-37-8.22,37a4.67,4.67,0,0,1-1,2.3,3.15,3.15,0,0,1-2.14.57ZM394.75,96a33.2,33.2,0,0,1-8.23-1,23.28,23.28,0,0,1-6.14-2.3,4.06,4.06,0,0,1-1.66-1.6,4.66,4.66,0,0,1-.32-1.61V86.51c0-1.2.43-1.78,1.23-1.78a2.87,2.87,0,0,1,1,.18c.33.11.81.34,1.34.57a28.17,28.17,0,0,0,5.88,2,30.87,30.87,0,0,0,6.35.69c3.37,0,6-.63,7.8-1.9a6.26,6.26,0,0,0,2.78-5.45,5.79,5.79,0,0,0-1.44-4c-1-1.09-2.78-2.07-5.4-3l-7.74-2.58c-3.9-1.32-6.79-3.27-8.55-5.85a14.32,14.32,0,0,1-2.67-8.32,13.44,13.44,0,0,1,1.44-6.37,14.45,14.45,0,0,1,3.85-4.7,16.45,16.45,0,0,1,5.55-3,22,22,0,0,1,6.74-1,25.08,25.08,0,0,1,3.57.23c1.23.17,2.36.4,3.48.63a20.87,20.87,0,0,1,3,.92,11.4,11.4,0,0,1,2.25,1,4.75,4.75,0,0,1,1.6,1.43,3.24,3.24,0,0,1,.48,1.9v2.69c0,1.21-.43,1.84-1.23,1.84a5.32,5.32,0,0,1-2-.69,23.17,23.17,0,0,0-10.26-2.24c-3,0-5.45.52-7.1,1.61a6.24,6.24,0,0,0-.91,9.18,15.62,15.62,0,0,0,5.88,3.16l7.58,2.58c3.85,1.32,6.63,3.15,8.28,5.51a13.6,13.6,0,0,1,2.46,8,15.63,15.63,0,0,1-1.39,6.65,15.19,15.19,0,0,1-3.9,5,16.57,16.57,0,0,1-5.93,3.21A23.67,23.67,0,0,1,394.75,96Z"/><path class="cls-7" d="M404.85,123.86c-17.58,13.94-43.11,21.35-65.07,21.35-30.78,0-58.5-12.23-79.45-32.54-1.65-1.6-.16-3.78,1.82-2.52a151.84,151.84,0,0,0,79.5,22.66,149.33,149.33,0,0,0,60.64-13.31c2.93-1.43,5.44,2.07,2.56,4.36Zm7.32-9c-2.24-3.1-14.85-1.49-20.57-.74-1.71.23-2-1.38-.43-2.59,10.05-7.57,26.56-5.39,28.48-2.86s-.54,20.31-9.94,28.8c-1.44,1.32-2.83.63-2.19-1.09,2.14-5.68,6.89-18.48,4.65-21.52Z"/></g></g><g id="Logo"><polygon class="cls-8" points="82.97 162.25 87.72 170.49 176.69 16.4 167.22 16.4 82.97 162.25"/><polygon class="cls-7" points="157.68 16.4 148.21 16.4 73.48 145.83 78.19 153.99 157.68 16.4"/><polygon class="cls-8" points="138.36 16.4 128.89 16.4 63.82 129.1 68.56 137.3 138.36 16.4"/><polygon class="cls-8" points="186.16 0 181.42 8.2 123.84 8.2 58.93 120.63 17.91 49.56 18.01 49.56 0 18.36 48.45 18.36 70.75 57 70.64 57 73.6 62.12 68.87 70.32 56.88 49.56 56.99 49.56 43.71 26.56 14.2 26.56 31.77 57 31.66 57 58.93 104.23 119.11 0 186.16 0"/><polygon class="cls-6" points="64.13 78.75 59.4 86.96 37.81 49.56 37.92 49.56 29.38 34.76 38.84 34.76 51.68 57 51.57 57 64.13 78.75"/></g><rect class="cls-8" x="196.84" y="65.43" width="13.35" height="62.7" transform="translate(-8.83 172.25) rotate(-45)"/><rect class="cls-6" x="196.84" y="65.43" width="13.35" height="62.7" transform="translate(278.99 309.12) rotate(-135)"/></g></g></svg>