<svg xmlns="http://www.w3.org/2000/svg" viewBox="0 0 315.04 288.53"><defs><style>.cls-1{fill:#010101;}.cls-2{fill:#f8991d;}.cls-3{fill:#fff;}</style></defs><g id="Layer_2" data-name="Layer 2"><g id="Layer_1-2" data-name="Layer 1"><g id="Logo"><polygon class="cls-1" points="140.41 274.59 148.46 288.53 299.02 27.75 282.99 27.75 140.41 274.59"/><polygon class="cls-2" points="266.84 27.75 250.82 27.75 124.36 246.79 132.33 260.6 266.84 27.75"/><polygon class="cls-1" points="234.15 27.75 218.13 27.75 108.01 218.48 116.02 232.35 234.15 27.75"/><polygon class="cls-1" points="315.04 0 307.03 13.88 209.58 13.88 99.73 204.14 30.3 83.88 30.49 83.88 0 31.07 81.99 31.07 119.74 96.46 119.55 96.46 124.56 105.13 116.55 119.01 96.27 83.88 96.45 83.88 73.98 44.95 24.04 44.95 53.77 96.46 53.59 96.46 99.73 176.39 201.57 0 315.04 0"/><polygon class="cls-3" points="108.54 133.28 100.52 147.16 63.99 83.88 64.18 83.88 49.71 58.83 65.73 58.83 87.46 96.46 87.28 96.46 108.54 133.28"/></g></g></g></svg>