<svg xmlns="http://www.w3.org/2000/svg" viewBox="0 0 293.39 268.7"><defs><style>.cls-1{fill:#282828;}.cls-2{fill:#a9a8a8;}.cls-3{fill:#0d0e0e;}</style></defs><g id="Layer_2" data-name="Layer 2"><g id="Layer_1-2" data-name="Layer 1"><g id="Logo"><polygon class="cls-1" points="130.76 255.72 138.25 268.7 278.47 25.85 263.54 25.85 130.76 255.72"/><polygon class="cls-2" points="248.5 25.85 233.58 25.85 115.81 229.83 123.23 242.69 248.5 25.85"/><polygon class="cls-1" points="218.06 25.85 203.13 25.85 100.59 203.46 108.05 216.39 218.06 25.85"/><polygon class="cls-3" points="293.39 0 285.93 12.92 195.18 12.92 92.88 190.11 28.22 78.12 28.39 78.12 0 28.94 76.36 28.94 111.51 89.83 111.33 89.83 116 97.91 108.54 110.83 89.65 78.12 89.82 78.12 68.89 41.86 22.38 41.86 50.08 89.83 49.9 89.83 92.88 164.26 187.72 0 293.39 0"/><polygon class="cls-2" points="101.08 124.12 93.61 137.05 59.59 78.12 59.77 78.12 46.3 54.78 61.22 54.78 81.45 89.83 81.28 89.83 101.08 124.12"/></g></g></g></svg>